<svg width="19" height="19" viewBox="0 0 19 19" fill="none" xmlns="http://www.w3.org/2000/svg">
<path d="M9.4502 4.7832C10.2705 4.7832 11.0498 5.0293 11.7881 5.43945C12.5264 5.84961 13.1006 6.42383 13.5107 7.16211C13.9209 7.90039 14.167 8.67969 14.167 9.5C14.167 10.3613 13.9209 11.1406 13.5107 11.8789C13.1006 12.6172 12.5264 13.1914 11.7881 13.6016C11.0498 14.0117 10.2705 14.2168 9.4502 14.2168C8.58887 14.2168 7.80957 14.0117 7.07129 13.6016C6.33301 13.1914 5.75879 12.6172 5.34863 11.8789C4.93848 11.1406 4.7334 10.3613 4.7334 9.5C4.7334 8.67969 4.93848 7.90039 5.34863 7.16211C5.75879 6.42383 6.33301 5.84961 7.07129 5.43945C7.80957 5.0293 8.58887 4.7832 9.4502 4.7832ZM9.4502 12.5762C10.2705 12.5762 11.0088 12.2891 11.624 11.6738C12.1982 11.0996 12.5264 10.3613 12.5264 9.5C12.5264 8.67969 12.1982 7.94141 11.624 7.32617C11.0088 6.75195 10.2705 6.42383 9.4502 6.42383C8.58887 6.42383 7.85059 6.75195 7.27637 7.32617C6.66113 7.94141 6.37402 8.67969 6.37402 9.5C6.37402 10.3613 6.66113 11.0996 7.27637 11.6738C7.85059 12.2891 8.58887 12.5762 9.4502 12.5762ZM15.4795 4.57812C15.4795 4.29102 15.3564 4.04492 15.1514 3.79883C14.9053 3.59375 14.6592 3.4707 14.3721 3.4707C14.0439 3.4707 13.7979 3.59375 13.5928 3.79883C13.3467 4.04492 13.2646 4.29102 13.2646 4.57812C13.2646 4.90625 13.3467 5.15234 13.5928 5.35742C13.7979 5.60352 14.0439 5.68555 14.3721 5.68555C14.6592 5.68555 14.9053 5.60352 15.1104 5.35742C15.3154 5.15234 15.4385 4.90625 15.4795 4.57812ZM18.5967 5.68555C18.5967 6.46484 18.6377 7.73633 18.6377 9.5C18.6377 11.3047 18.5967 12.5762 18.5557 13.3555C18.5146 14.1348 18.3916 14.791 18.2275 15.3652C17.9814 16.0625 17.5713 16.6777 17.0791 17.1699C16.5869 17.6621 15.9717 18.0312 15.3154 18.2773C14.7412 18.4824 14.0439 18.6055 13.2646 18.6465C12.4854 18.6875 11.2139 18.6875 9.4502 18.6875C7.64551 18.6875 6.37402 18.6875 5.59473 18.6465C4.81543 18.6055 4.15918 18.4824 3.58496 18.2363C2.8877 18.0312 2.27246 17.6621 1.78027 17.1699C1.28809 16.6777 0.918945 16.0625 0.672852 15.3652C0.467773 14.791 0.344727 14.1348 0.303711 13.3555C0.262695 12.5762 0.262695 11.3047 0.262695 9.5C0.262695 7.73633 0.262695 6.46484 0.303711 5.68555C0.344727 4.90625 0.467773 4.20898 0.672852 3.63477C0.918945 2.97852 1.28809 2.36328 1.78027 1.87109C2.27246 1.37891 2.8877 0.96875 3.58496 0.722656C4.15918 0.558594 4.81543 0.435547 5.59473 0.394531C6.37402 0.353516 7.64551 0.3125 9.4502 0.3125C11.2139 0.3125 12.4854 0.353516 13.2646 0.394531C14.0439 0.435547 14.7412 0.558594 15.3154 0.722656C15.9717 0.96875 16.5869 1.37891 17.0791 1.87109C17.5713 2.36328 17.9814 2.97852 18.2275 3.63477C18.3916 4.20898 18.5146 4.90625 18.5967 5.68555ZM16.6279 14.9141C16.792 14.4629 16.874 13.7246 16.9561 12.6992C16.9561 12.125 16.9971 11.2637 16.9971 10.1562V8.84375C16.9971 7.73633 16.9561 6.875 16.9561 6.30078C16.874 5.27539 16.792 4.53711 16.6279 4.08594C16.2998 3.26562 15.6846 2.65039 14.8643 2.32227C14.4131 2.1582 13.6748 2.07617 12.6494 1.99414C12.0342 1.99414 11.1729 1.95312 10.1064 1.95312H8.79395C7.68652 1.95312 6.8252 1.99414 6.25098 1.99414C5.22559 2.07617 4.4873 2.1582 4.03613 2.32227C3.1748 2.65039 2.60059 3.26562 2.27246 4.08594C2.1084 4.53711 1.98535 5.27539 1.94434 6.30078C1.90332 6.91602 1.90332 7.77734 1.90332 8.84375V10.1562C1.90332 11.2637 1.90332 12.125 1.94434 12.6992C1.98535 13.7246 2.1084 14.4629 2.27246 14.9141C2.60059 15.7754 3.21582 16.3496 4.03613 16.6777C4.4873 16.8418 5.22559 16.9648 6.25098 17.0059C6.8252 17.0469 7.68652 17.0469 8.79395 17.0469H10.1064C11.2139 17.0469 12.0752 17.0469 12.6494 17.0059C13.6748 16.9648 14.4131 16.8418 14.8643 16.6777C15.6846 16.3496 16.2998 15.7344 16.6279 14.9141Z" fill="#2C2C2C"/>
</svg>
