<svg width="19" height="17" viewBox="0 0 19 17" fill="none" xmlns="http://www.w3.org/2000/svg">
<path d="M18.5969 2.0606C18.6789 1.48638 18.6379 1.11724 18.3918 0.871145C18.1457 0.625051 17.8176 0.584036 17.4074 0.707083L1.12424 6.98247C0.550025 7.22857 0.262916 7.47466 0.262916 7.72075C0.2219 8.00786 0.426978 8.21294 0.919166 8.33599L5.10276 9.64849L14.7824 3.53716C14.9055 3.45513 15.0285 3.41411 15.1516 3.41411C15.2746 3.41411 15.3567 3.41411 15.3977 3.49615C15.4387 3.57818 15.3977 3.61919 15.3156 3.70122L7.48167 10.7969L7.15354 15.1036C7.35862 15.1036 7.52268 15.0626 7.68674 14.9805C7.76878 14.9395 7.85081 14.8575 8.01487 14.6934L10.0656 12.7247L14.2903 15.8418C14.6594 16.0879 14.9875 16.129 15.2336 16.0059C15.4797 15.8829 15.6848 15.5958 15.8078 15.1036L18.5969 2.0606Z" fill="#2C2C2C"/>
</svg>
