<svg width="21" height="21" viewBox="0 0 21 21" fill="none" xmlns="http://www.w3.org/2000/svg">
<path d="M18.6611 2.05078C19.5635 2.87109 20.1787 4.06055 20.5889 5.70117C20.958 7.50586 20.999 9.63867 20.7119 12.1406C20.4658 14.1504 19.6865 15.668 18.4561 16.6934C17.7588 17.2676 16.8564 17.6777 15.79 17.9238L15.5439 17.9648C15.1338 18.1289 14.4775 18.252 13.5752 18.334C12.1396 18.5391 10.7041 18.5801 9.30957 18.457C8.73535 19.1133 8.3252 19.5645 8.0791 19.8105L7.75098 20.1797C7.42285 20.5078 7.21777 20.7539 7.09473 20.8359C6.84863 21 6.56152 21.041 6.31543 20.959C6.15137 20.918 6.02832 20.8359 5.94629 20.6719C5.86426 20.5078 5.82324 20.3438 5.82324 20.1797V17.8008C4.30566 17.3906 3.15723 16.6113 2.33691 15.4219C1.72168 14.5195 1.31152 13.3301 1.14746 11.8945C0.983398 11.0742 0.942383 10.0078 1.02441 8.61328C1.02441 7.17773 1.18848 5.94727 1.5166 4.92188C1.84473 3.81445 2.33691 2.91211 3.0752 2.17383C3.69043 1.59961 4.51074 1.14844 5.53613 0.779297C6.31543 0.533203 7.21777 0.328125 8.24316 0.164062C8.94043 0.0820312 9.67871 0 10.417 0H11.3193C13.3291 0.0410156 15.0928 0.328125 16.5693 0.861328C17.4717 1.23047 18.1689 1.64062 18.6611 2.05078ZM19.2354 11.7715C19.4814 9.63867 19.4814 7.83398 19.1533 6.27539C18.8252 4.83984 18.292 3.77344 17.5537 3.11719C17.1436 2.78906 16.5693 2.46094 15.749 2.17383C14.4365 1.76367 12.96 1.51758 11.2373 1.47656H10.458C9.80176 1.47656 9.18652 1.51758 8.6123 1.59961C7.75098 1.72266 6.97168 1.88672 6.31543 2.0918C5.4541 2.41992 4.75684 2.78906 4.26465 3.28125C3.64941 3.85547 3.19824 4.63477 2.91113 5.57812C2.66504 6.43945 2.50098 7.46484 2.50098 8.6543V8.90039C2.45996 10.0898 2.50098 10.9922 2.58301 11.6484C2.74707 12.7969 3.0752 13.7812 3.56738 14.5195C4.22363 15.4629 5.16699 16.1191 6.39746 16.4473L6.35645 19.9746C6.35645 20.1797 6.39746 20.3027 6.47949 20.3438C6.56152 20.3848 6.68457 20.3438 6.84863 20.1797C7.09473 19.9336 7.66895 19.3184 8.48926 18.334L9.6377 16.9395C10.8271 17.0215 12.0576 16.9805 13.2881 16.8164C14.0674 16.7344 14.6416 16.6113 15.0107 16.4883L15.2568 16.4473C16.1182 16.2422 16.8154 15.9141 17.3896 15.4629C18.374 14.6426 18.9893 13.4121 19.2354 11.7715ZM13.5342 8.44922C13.4521 7.25977 12.8369 6.64453 11.6885 6.5625C11.5244 6.5625 11.4014 6.68555 11.4014 6.84961C11.4014 7.01367 11.4834 7.0957 11.6475 7.0957C12.4678 7.17773 12.9189 7.62891 13.001 8.49023C13.001 8.6543 13.083 8.73633 13.2471 8.73633C13.4111 8.73633 13.5342 8.6543 13.5342 8.44922ZM14.3545 8.90039C14.3545 9.10547 14.4365 9.1875 14.6006 9.1875C14.7646 9.1875 14.8877 9.10547 14.8877 8.94141C14.8877 7.91602 14.6006 7.05469 13.9443 6.31641C13.2881 5.61914 12.4268 5.20898 11.2783 5.12695C11.1143 5.12695 10.9912 5.25 10.9912 5.41406C10.9912 5.57812 11.0732 5.66016 11.2373 5.66016C12.2217 5.74219 13.001 6.11133 13.5752 6.68555C14.1084 7.30078 14.3545 8.03906 14.3545 8.90039ZM16.2822 9.47461C16.2822 7.75195 15.749 6.35742 14.6826 5.29102C13.6572 4.30664 12.3857 3.77344 10.8271 3.77344C10.6221 3.77344 10.54 3.89648 10.54 4.06055C10.54 4.22461 10.6221 4.30664 10.8271 4.30664C12.2217 4.30664 13.3701 4.75781 14.2725 5.61914C15.2568 6.60352 15.749 7.875 15.749 9.47461C15.749 9.63867 15.8311 9.7207 15.9951 9.7207C16.1592 9.7207 16.2822 9.63867 16.2822 9.47461ZM15.8311 13.4941C15.9951 13.125 15.9541 12.7969 15.667 12.5098C15.1748 12.0586 14.5186 11.6074 13.7803 11.1973C13.5752 11.0742 13.3701 11.0332 13.165 11.0742C12.96 11.1152 12.7959 11.1973 12.7139 11.3203L12.3037 11.8125C12.2217 11.9355 12.0986 12.0176 11.9346 12.0176L11.7295 12.0586C11.0732 11.8945 10.54 11.6074 10.0479 11.1973C9.6377 10.9102 9.26855 10.541 8.98145 10.0488C8.73535 9.7207 8.57129 9.39258 8.44824 9.02344L8.28418 8.57227V8.36719C8.28418 8.20312 8.36621 8.08008 8.48926 7.99805L8.98145 7.62891C9.10449 7.54688 9.18652 7.38281 9.22754 7.17773C9.26855 6.97266 9.22754 6.76758 9.14551 6.52148C8.89941 6.15234 8.69434 5.82422 8.53027 5.53711L7.79199 4.63477C7.50488 4.34766 7.17676 4.30664 6.80762 4.4707C6.31543 4.75781 5.94629 5.04492 5.7002 5.37305C5.37207 5.82422 5.29004 6.23438 5.41309 6.60352L5.65918 7.13672C5.82324 7.66992 6.11035 8.28516 6.52051 8.94141C6.88965 9.59766 7.2998 10.2129 7.75098 10.7871C8.24316 11.4434 8.81738 12.0176 9.47363 12.5098C10.0889 13.002 10.8682 13.4941 11.7705 13.9863C12.5908 14.4375 13.2061 14.7246 13.6982 14.8477C14.0674 15.0117 14.4775 14.8887 14.9287 14.5605C15.2568 14.3145 15.5439 13.9863 15.8311 13.4941Z" fill="#2C2C2C"/>
</svg>
