<svg width="125" height="25" viewBox="0 0 125 25" fill="none" xmlns="http://www.w3.org/2000/svg">
<g clip-path="url(#clip0)">
<path d="M6.317 23.4375C4.40276 22.2656 2.87136 20.8984 1.72282 18.9453C0.574272 16.9922 0 14.8438 0 12.5C0 10.1563 0.574272 8.00781 1.72282 6.05469C2.87136 4.10156 4.40276 2.73438 6.317 1.5625C8.23124 0.585938 10.5283 0 13.0168 0C15.5054 0 17.611 0.585938 19.7167 1.5625C21.8224 2.53906 23.1623 4.10156 24.3109 6.05469C25.4594 8.00781 26.0337 10.1563 26.0337 12.5C26.0337 14.8438 25.4594 16.9922 24.3109 18.9453C23.1623 20.8984 21.6309 22.2656 19.7167 23.4375C17.8024 24.6094 15.5054 25 13.0168 25C10.5283 25 8.23124 24.4141 6.317 23.4375ZM16.8453 19.3359C17.9939 18.75 18.951 17.7734 19.5253 16.6016C20.0995 15.4297 20.4824 14.0625 20.4824 12.5C20.4824 10.9375 20.0995 9.57031 19.5253 8.39844C18.7596 7.42188 17.8024 6.44531 16.8453 5.66406C15.6968 5.07813 14.3568 4.6875 13.0168 4.6875C11.6769 4.6875 10.3369 5.07813 9.18836 5.66406C8.03982 6.44531 7.08269 7.42188 6.50842 8.59375C5.93415 9.76563 5.5513 10.9375 5.5513 12.5C5.5513 14.0625 5.93415 15.4297 6.50842 16.6016C7.08269 17.7734 8.03982 18.75 9.18836 19.3359C10.3369 19.9219 11.4855 20.3125 13.0168 20.3125C14.5482 20.3125 15.6968 19.9219 16.8453 19.3359Z" fill="#E1251B"/>
<path d="M54.9385 0.390625V6.83594L60.4898 4.88281V0.390625H54.9385ZM54.9385 24.6094H60.4898V10.3516L54.9385 12.3047V24.6094Z" fill="black"/>
<path d="M92.2666 0.390625V6.83594L97.8179 4.88281V0.390625H92.2666ZM92.2666 24.6094H97.6265V10.3516L92.0752 12.3047V24.6094H92.2666Z" fill="black"/>
<path d="M82.1208 17.5781L87.0978 20.3125V12.1094H82.1208V17.5781ZM77.9095 20.3125C76.3781 20.3125 75.0381 19.9219 73.8896 19.3359C72.741 18.75 71.7839 17.7734 71.2096 16.6016C70.6353 15.4297 70.2525 14.0625 70.2525 12.5C70.2525 10.9375 70.6353 9.57031 71.2096 8.39844C71.7839 7.22656 72.741 6.25 73.8896 5.66406C75.0381 5.07813 76.3781 4.6875 77.9095 4.6875C80.398 4.6875 82.3122 5.66406 84.035 7.42187L87.4807 4.10156C86.3321 2.73437 84.9922 1.75781 83.2693 0.976562C81.5465 0.195312 79.6323 0 77.5266 0C75.0381 0 72.741 0.585938 70.8268 1.5625C68.9125 2.53906 67.3811 4.10156 66.2326 6.05469C65.084 8.00781 64.5098 10.1563 64.5098 12.5C64.5098 14.8438 65.084 16.9922 66.2326 18.9453C67.3811 20.8984 68.9125 22.2656 70.8268 23.4375C72.741 24.4141 75.0381 25 77.5266 25C79.2494 25 80.9723 24.8047 82.6951 24.2187C83.4608 24.0234 84.2265 23.6328 84.8007 23.2422L78.8666 20.1172C78.6752 20.3125 78.2923 20.3125 77.9095 20.3125Z" fill="black"/>
<path d="M45.7505 16.7969C47.2819 16.0156 48.4304 15.0391 49.3876 13.8672C50.1533 12.5 50.7275 10.9375 50.7275 9.17969C50.7275 7.42188 50.3447 5.85938 49.3876 4.49219C48.6219 3.125 47.2819 2.14844 45.7505 1.36719C44.2191 0.585938 42.3049 0.390625 40.1992 0.390625H29.8623V4.88281H39.8164C41.5392 4.88281 42.6877 5.27344 43.6448 6.05469C44.4105 6.83594 44.9848 7.8125 44.9848 9.17969C44.9848 10.5469 44.602 11.5234 43.6448 12.3047C42.8791 13.0859 41.5392 13.4766 39.8164 13.4766H35.4136V8.00781H29.8623V24.6094H35.4136V17.7734H40.3906C43.0706 17.7734 44.7934 17.1875 45.7505 16.7969ZM48.6219 21.0938H42.6877L44.9848 24.6094H50.919L48.6219 21.0938Z" fill="black"/>
<path d="M119.64 0.390625V9.96094L125 16.7969V0.390625H119.64ZM119.64 15.0391L107.772 0.390625H103.369V24.6094H108.729V9.96094L120.597 24.6094H125.191V21.875L119.64 15.0391Z" fill="black"/>
</g>
<defs>
<clipPath id="clip0">
<rect width="125" height="25" fill="white"/>
</clipPath>
</defs>
</svg>
