<svg width="281" height="300" viewBox="0 0 281 300" fill="none" xmlns="http://www.w3.org/2000/svg">
<path d="M213.092 210.938L273.975 243.75V145.312H213.092V210.938ZM161.575 243.75C142.842 243.75 126.45 239.062 112.4 232.031C98.35 222.656 88.9833 213.281 79.6167 199.219C72.5917 185.156 67.9083 168.75 67.9083 150C67.9083 131.25 72.5917 114.844 79.6167 100.781C86.6417 86.7188 98.35 75 112.4 67.9688C128.792 60.9375 145.183 56.25 163.917 56.25C194.358 56.25 217.775 67.9687 238.85 89.0625L281 49.2187C266.95 32.8125 250.558 21.0938 229.483 11.7188C208.408 4.6875 184.992 0 159.233 0C128.792 0 100.692 7.03125 77.275 18.75C53.8583 30.4688 35.125 49.2187 21.075 72.6562C7.025 96.0937 0 121.875 0 150C0 178.125 7.025 203.906 21.075 227.344C35.125 250.781 53.8583 267.187 77.275 281.25C100.692 292.969 128.792 300 159.233 300C180.308 300 201.383 297.656 222.458 290.625C231.825 288.281 241.192 283.594 248.217 278.906L175.625 241.406C170.942 243.75 166.258 243.75 161.575 243.75Z" fill="#F6F6F6" fill-opacity="0.7"/>
</svg>
