<svg width="319" height="300" viewBox="0 0 319 300" fill="none" xmlns="http://www.w3.org/2000/svg">
<path d="M77.4044 281.25C53.9485 267.187 35.1838 250.781 21.1103 227.344C7.03676 203.906 0 178.125 0 150C0 121.875 7.03676 96.0937 21.1103 72.6562C35.1838 49.2187 53.9485 32.8125 77.4044 18.75C100.86 7.03125 129.007 0 159.5 0C189.993 0 215.794 7.03125 241.596 18.75C267.397 30.4688 283.816 49.2187 297.89 72.6562C311.963 96.0937 319 121.875 319 150C319 178.125 311.963 203.906 297.89 227.344C283.816 250.781 265.051 267.187 241.596 281.25C218.14 295.313 189.993 300 159.5 300C129.007 300 100.86 292.969 77.4044 281.25ZM206.412 232.031C220.485 225 232.213 213.281 239.25 199.219C246.287 185.156 250.978 168.75 250.978 150C250.978 131.25 246.287 114.844 239.25 100.781C229.868 89.0625 218.14 77.3438 206.412 67.9688C192.338 60.9375 175.919 56.25 159.5 56.25C143.081 56.25 126.662 60.9375 112.588 67.9688C98.5147 77.3438 86.7868 89.0625 79.75 103.125C72.7132 117.188 68.0221 131.25 68.0221 150C68.0221 168.75 72.7132 185.156 79.75 199.219C86.7868 213.281 98.5147 225 112.588 232.031C126.662 239.062 140.735 243.75 159.5 243.75C178.265 243.75 192.338 239.062 206.412 232.031Z" fill="#F7F7F7" fill-opacity="0.7"/>
</svg>
