<svg width="266" height="300" viewBox="0 0 266 300" fill="none" xmlns="http://www.w3.org/2000/svg">
<path d="M197.413 200.885L197.387 200.895L197.362 200.905C185.47 205.664 164.029 212.823 133 212.823H70.1273H67.6273V215.323V297.5H2.5V96.8548H67.6273V162.097V164.597H70.1273H125.745C147.678 164.597 165.39 159.758 175.778 149.446C188.502 139.213 193.536 126.35 193.536 108.871C193.536 91.098 185.879 78.4002 175.877 68.394L175.779 68.296L175.671 68.2095C163.036 58.0962 147.932 53.1452 125.745 53.1452H2.5V2.5H130.582C156.8 2.5 178.231 7.25503 197.29 14.3914C216.238 23.8895 230.389 35.7127 242.202 52.2591C253.921 68.674 258.664 87.4847 258.664 108.871C258.664 129.992 251.656 148.853 242.174 165.505C230.184 179.877 216.057 193.89 197.413 200.885ZM261.112 297.5H189.957L164.27 258.952H233.285L261.112 297.5Z" stroke="#F6F6F6" stroke-width="5"/>
</svg>
